Coordinates
version=1
nRows=7
nColumns=42
inDegrees=yes

Units are S.I. units (second, meters, Newtons, ...)
If the header above contains a line with 'inDegrees', this indicates whether rotational values are in degrees (yes) or radians (no).

endheader
time	pelvis_tilt	pelvis_list	pelvis_rotation	pelvis_tx	pelvis_ty	pelvis_tz	hip_flexion_r	hip_adduction_r	hip_rotation_r	knee_angle_r	knee_adduction_r	knee_angle_r_beta	ankle_angle_r	subtalar_angle_r	mtp_angle_r	hip_flexion_l	hip_adduction_l	hip_rotation_l	knee_angle_l	knee_adduction_l	knee_angle_l_beta	ankle_angle_l	subtalar_angle_l	mtp_angle_l	lumbar_extension	lumbar_bending	lumbar_rotation	arm_flex_r	arm_add_r	arm_rot_r	elbow_flex_r	pro_sup_r	wrist_flex_r	wrist_dev_r	arm_flex_l	arm_add_l	arm_rot_l	elbow_flex_l	pro_sup_l	wrist_flex_l	wrist_dev_l
      1.61000000	      0.55272278	      1.58724211	      9.79675892	     -0.21533357	      0.86699066	     -0.10547874	      9.56096795	     -6.04703227	    -32.61519626	     33.16657953	     -6.71093327	      0.57886601	     26.47285079	     33.15601672	     -7.54795909	     30.99811162	      0.88209218	     -8.90396166	     33.78048460	     -5.85864577	      0.58958068	      9.36661331	     15.65773236	     -7.54795909	    -29.14211637	      0.06351100	     -2.77113515	     11.29071210	    -16.96595482	    -10.02083703	     54.44114280	     90.00000001	      0.00000000	      0.00000000	     20.03804180	    -11.58077333	     28.90479117	     58.38369758	     90.00000001	      0.00000000	      0.00000000
      1.62000000	      0.70020847	      1.55106082	      9.50843625	     -0.21079474	      0.86666079	     -0.10681974	      9.01705821	     -6.00643540	    -32.25193464	     33.06746209	     -6.58139690	      0.57713609	     27.03110908	     33.32253045	     -7.54499303	     31.03436622	      0.63326372	    -10.92005227	     33.03334699	     -6.30666771	      0.57654067	      9.28443077	     18.05399211	     -7.54499303	    -29.20555990	      0.01616093	     -2.56026126	     11.54673547	    -17.25214496	     -8.87092480	     54.36185693	     90.00000001	      0.00000000	      0.00000000	     19.76603625	    -11.52867336	     29.01823027	     58.04165612	     90.00000001	      0.00000000	      0.00000000
      1.63000000	      0.73939040	      1.44572604	      9.28269378	     -0.20633852	      0.86612927	     -0.10822933	      8.60972882	     -5.93138053	    -32.03011613	     32.97594686	     -6.47796703	      0.57553885	     27.31660736	     33.36377215	     -7.54415990	     31.12406046	      0.42662502	    -12.03873004	     32.49726741	     -6.37904405	      0.56718431	      9.07485556	     18.18620962	     -7.54415990	    -29.15953779	      0.04870381	     -2.36803493	     11.78113267	    -17.25135376	     -8.63734479	     54.44112606	     90.00000001	      0.00000000	      0.00000000	     19.41644793	    -11.50587138	     29.08487606	     57.88831464	     90.00000001	      0.00000000	      0.00000000
      1.64000000	      0.67607246	      1.27941151	      9.20146526	     -0.20189841	      0.86533732	     -0.10976928	      8.33687663	     -5.86441116	    -32.08297719	     32.99847205	     -6.43772901	      0.57593199	     27.37334286	     33.36258178	     -7.54409144	     31.31001348	      0.27843454	    -12.42512829	     32.21264935	     -6.24256974	      0.56221679	      9.07821823	     18.15102667	     -7.54409144	    -28.99040679	      0.15728613	     -2.19742366	     11.92171189	    -17.21483318	     -8.59253714	     54.49360222	     90.00000001	      0.00000000	      0.00000000	     19.11405107	    -11.48753239	     29.14384925	     57.80938295	     90.00000001	      0.00000000	      0.00000000
      1.65000000	      0.77782162	      1.14944838	      8.79793701	     -0.19709751	      0.86477787	     -0.11118844	      7.86498450	     -5.70152955	    -31.64740913	     32.83831840	     -6.38680143	      0.57313678	     27.93207628	     33.50968603	     -7.54340782	     31.29504536	     -0.05881055	    -14.51283211	     31.95234627	     -6.87064816	      0.55767365	      8.69042005	     18.72768712	     -7.54340782	    -28.97680491	      0.16494878	     -1.97562463	     12.21850318	    -17.19478266	     -8.22098782	     54.52800698	     90.00000001	      0.00000000	      0.00000000	     18.62616871	    -11.47787124	     29.27285142	     57.42117667	     90.00000001	      0.00000000	      0.00000000
      1.66000000	      0.87566886	      0.99273080	      8.45281439	     -0.19213926	      0.86402707	     -0.11267663	      7.40459078	     -5.60825109	    -31.46938658	     32.81983405	     -6.31498861	      0.57281416	     28.45970468	     33.65649241	     -7.54136551	     31.27708311	     -0.41762904	    -16.58224160	     31.84839071	     -7.61563507	      0.55585928	      8.69374355	     21.62983409	     -7.54136551	    -28.92277168	      0.18492830	     -1.69423220	     12.34179660	    -17.42835222	     -7.31274112	     54.48585352	     90.00000001	      0.00000000	      0.00000000	     18.29173797	    -11.37415793	     29.44162752	     56.84692072	     90.00000001	      0.00000000	      0.00000000
      1.67000000	      0.91236742	      0.78083159	      8.20795311	     -0.18722092	      0.86316993	     -0.11421602	      7.00033495	     -5.42459885	    -31.38373285	     32.72243433	     -6.32725256	      0.57111422	     28.65512151	     33.75146110	     -7.54077868	     31.28933282	     -0.70543454	    -17.64411334	     31.99890042	     -7.99529994	      0.55848617	      8.61139400	     21.74720298	     -7.54077868	    -28.81448545	      0.27552529	     -1.57678600	     12.49338003	    -17.35738410	     -7.12290050	     54.57881380	     90.00000001	      0.00000000	      0.00000000	     17.80782765	    -11.41791505	     29.53237797	     56.64255026	     90.00000001	      0.00000000	      0.00000000
